<svg width="20" height="20" viewBox="0 0 20 20" fill="none" xmlns="http://www.w3.org/2000/svg">
<path d="M16.667 1.66667H6.66699C5.74783 1.66667 5.00033 2.41417 5.00033 3.33334V5.00001H3.33366C2.41449 5.00001 1.66699 5.74751 1.66699 6.66667V16.6667C1.66699 17.5858 2.41449 18.3333 3.33366 18.3333H13.3337C14.2528 18.3333 15.0003 17.5858 15.0003 16.6667V15H16.667C17.5862 15 18.3337 14.2525 18.3337 13.3333V3.33334C18.3337 2.41417 17.5862 1.66667 16.667 1.66667ZM13.3337 16.6667H3.33366V6.66667H5.00033V13.3333C5.00033 14.2525 5.74783 15 6.66699 15H13.3337V16.6667ZM16.6645 13.3333H6.66699V3.33334H16.667L16.6645 13.3333Z" fill="white"/>
</svg>
