<svg width="151" height="171" viewBox="0 0 151 171" fill="none" xmlns="http://www.w3.org/2000/svg">
<path d="M30.3535 40.6667H40.3535V50.6667H30.3535V40.6667Z" fill="#43425D"/>
<path d="M30.3535 80.6667V90.6667H40.3535V80.6667H30.3535ZM30.3535 80.6667V90.6667H40.3535V80.6667H30.3535ZM30.3535 80.6667V90.6667H40.3535V80.6667H30.3535ZM30.3535 120.667V130.667H40.3535V120.667H30.3535ZM30.3535 80.6667V90.6667H40.3535V80.6667H30.3535ZM30.3535 120.667V130.667H40.3535V120.667H30.3535ZM30.3535 80.6667V90.6667H40.3535V80.6667H30.3535ZM30.3535 120.667V130.667H40.3535V120.667H30.3535ZM30.3535 80.6667V90.6667H40.3535V80.6667H30.3535ZM30.3535 120.667V130.667H40.3535V120.667H30.3535ZM30.3535 80.6667V90.6667H40.3535V80.6667H30.3535ZM30.3535 120.667V130.667H40.3535V120.667H30.3535ZM30.3535 80.6667V90.6667H40.3535V80.6667H30.3535ZM30.3535 120.667V130.667H40.3535V120.667H30.3535ZM120.354 0V5C120.354 7.75651 118.11 10 115.354 10C112.597 10 110.354 7.75651 110.354 5V0H80.3535V5C80.3535 7.75651 78.11 10 75.3535 10C72.597 10 70.3535 7.75651 70.3535 5V0H40.3535V5C40.3535 7.75651 38.11 10 35.3535 10C32.597 10 30.3535 7.75651 30.3535 5V0H0.353516V170.667H110.354V130.667H150.354V0H120.354ZM60.3535 50.6667H100.354V60.6667H60.3535V50.6667ZM60.3535 90.6667H100.354V100.667H60.3535V90.6667ZM50.3535 140.667H20.3535V110.667H50.3535V140.667ZM50.3535 100.667H20.3535V70.6667H50.3535V100.667ZM50.3535 60.6667H20.3535V30.6667H50.3535V60.6667ZM100.354 140.667H60.3535V130.667H100.354V140.667ZM130.354 120.667H60.3535V110.667H130.354V120.667ZM130.354 80.6667H60.3535V70.6667H130.354V80.6667ZM130.354 40.6667H60.3535V30.6667H130.354V40.6667ZM40.3535 120.667H30.3535V130.667H40.3535V120.667ZM40.3535 80.6667H30.3535V90.6667H40.3535V80.6667ZM30.3535 120.667V130.667H40.3535V120.667H30.3535ZM30.3535 80.6667V90.6667H40.3535V80.6667H30.3535ZM30.3535 120.667V130.667H40.3535V120.667H30.3535ZM30.3535 80.6667V90.6667H40.3535V80.6667H30.3535ZM30.3535 120.667V130.667H40.3535V120.667H30.3535ZM30.3535 80.6667V90.6667H40.3535V80.6667H30.3535ZM30.3535 120.667V130.667H40.3535V120.667H30.3535ZM30.3535 80.6667V90.6667H40.3535V80.6667H30.3535ZM30.3535 120.667V130.667H40.3535V120.667H30.3535ZM30.3535 80.6667V90.6667H40.3535V80.6667H30.3535ZM30.3535 120.667V130.667H40.3535V120.667H30.3535ZM30.3535 80.6667V90.6667H40.3535V80.6667H30.3535Z" fill="#43425D"/>
<path d="M120.354 140.667V170.667H125.354C139.137 170.667 150.354 159.453 150.354 145.667V140.667H120.354Z" fill="#43425D"/>
</svg>
