<svg width="12" height="21" viewBox="0 0 12 21" fill="none" xmlns="http://www.w3.org/2000/svg">
<g clip-path="url(#clip0_40_2)">
<path d="M2.79685 20.2902L10.7969 11.4902C11.0644 11.1957 11.2128 10.8121 11.2128 10.4142C11.2128 10.0163 11.0644 9.63264 10.7969 9.33816L2.79685 0.538191C2.65637 0.379807 2.48581 0.250887 2.29517 0.158895C2.10445 0.0669029 1.89733 0.013679 1.68597 0.00231099C1.47453 -0.00906497 1.26293 0.021639 1.06349 0.0926312C0.863966 0.163631 0.680606 0.273511 0.523886 0.415911C0.367246 0.558311 0.240365 0.730391 0.150685 0.922184C0.060925 1.11398 0.0102052 1.32166 0.00140521 1.53321C-0.00747479 1.74475 0.0258052 1.95594 0.0991652 2.15455C0.172525 2.35316 0.284606 2.53522 0.428926 2.69019L7.45293 10.4142L0.431326 18.1382C0.151886 18.4531 0.00788509 18.8655 0.0305251 19.2859C0.0530851 19.7063 0.240525 20.1009 0.552125 20.3841C0.863726 20.6672 1.27429 20.8162 1.69501 20.7986C2.11565 20.781 2.51245 20.5983 2.79933 20.2902H2.79685Z" fill="white"/>
</g>
<defs>
<clipPath id="clip0_40_2">
<rect width="12" height="20.8" fill="white"/>
</clipPath>
</defs>
</svg>
