<svg width="15" height="26" viewBox="0 0 15 26" fill="none" xmlns="http://www.w3.org/2000/svg">
<path d="M3.49601 25.3627L13.4961 14.3627C13.8305 13.9946 14.0159 13.5151 14.0159 13.0177C14.0159 12.5204 13.8305 12.0408 13.4961 11.6727L3.49601 0.672739C3.32041 0.474759 3.10721 0.313609 2.86891 0.198619C2.63051 0.0836287 2.37161 0.0170988 2.10741 0.00288875C1.84311 -0.0113312 1.57861 0.0270488 1.32931 0.115789C1.07991 0.204539 0.85071 0.341889 0.65481 0.519889C0.45901 0.697889 0.300409 0.912989 0.188309 1.15273C0.0761087 1.39247 0.012709 1.65208 0.00170898 1.91651C-0.00939102 2.18094 0.032209 2.44493 0.123909 2.69319C0.215609 2.94145 0.35571 3.16903 0.53611 3.36274L9.31611 13.0177L0.53911 22.6727C0.18981 23.0664 0.00980883 23.5819 0.0381088 24.1074C0.0663088 24.6329 0.300609 25.1261 0.690109 25.4801C1.07961 25.834 1.59281 26.0202 2.11871 25.9982C2.64451 25.9763 3.14051 25.7479 3.49911 25.3627H3.49601Z" fill="white"/>
</svg>
