<svg width="25" height="25" viewBox="0 0 25 25" fill="none" xmlns="http://www.w3.org/2000/svg">
<path d="M12.5 0C5.60762 0 0 5.60762 0 12.5C0 19.3924 5.60762 25 12.5 25C19.3924 25 25 19.3924 25 12.5C25 5.60762 19.3924 0 12.5 0ZM17.511 15.3015C18.1213 15.9115 18.1213 16.901 17.511 17.511C17.2062 17.8162 16.8061 17.9688 16.4062 17.9688C16.0064 17.9688 15.6063 17.8162 15.3015 17.511L12.5 14.7095L9.69849 17.511C9.3937 17.8162 8.99355 17.9688 8.59375 17.9688C8.19395 17.9688 7.7938 17.8162 7.48901 17.511C6.87866 16.901 6.87866 15.9115 7.48901 15.3015L10.2905 12.5L7.48901 9.69849C6.87866 9.08853 6.87866 8.09897 7.48901 7.48901C8.09858 6.87866 9.08892 6.87866 9.69849 7.48901L12.5 10.2905L15.3015 7.48901C15.9111 6.87866 16.9014 6.87866 17.511 7.48901C18.1213 8.09897 18.1213 9.08853 17.511 9.69849L14.7095 12.5L17.511 15.3015Z" fill="#43425D"/>
</svg>
