<svg width="18" height="15" viewBox="0 0 18 15" fill="none" xmlns="http://www.w3.org/2000/svg">
<path d="M14.3079 10.4193H13.4781V9.35892C13.4781 9.01517 13.1994 8.73653 12.8557 8.73653C12.5119 8.73653 12.2333 9.01517 12.2333 9.35892V10.9237C12.2333 11.3319 12.5758 11.6641 12.9967 11.6641H14.3079C14.6517 11.6641 14.9303 11.3854 14.9303 11.0417C14.9303 10.6979 14.6517 10.4193 14.3079 10.4193Z" fill="#43425D"/>
<path d="M4.14514 4.4259H2.80183C2.5112 4.4259 2.27478 4.66232 2.27478 4.95295V6.06574C2.27478 6.35633 2.5112 6.59279 2.80183 6.59279H4.14514C4.43577 6.59279 4.67219 6.35638 4.67219 6.06574V4.95295C4.67219 4.66237 4.43577 4.4259 4.14514 4.4259Z" fill="#43425D"/>
<path d="M7.6029 4.4259H6.25959C5.96896 4.4259 5.73254 4.66232 5.73254 4.95295V6.06574C5.73254 6.35633 5.96896 6.59279 6.25959 6.59279H7.6029C7.89353 6.59279 8.12995 6.35638 8.12995 6.06574V4.95295C8.12995 4.66237 7.89353 4.4259 7.6029 4.4259Z" fill="#43425D"/>
<path d="M11.1067 4.4259H9.76338C9.47274 4.4259 9.23633 4.66232 9.23633 4.95295V6.06574C9.23633 6.35633 9.47274 6.59279 9.76338 6.59279H11.1067C11.3973 6.59279 11.6337 6.35638 11.6337 6.06574V4.95295C11.6337 4.66237 11.3973 4.4259 11.1067 4.4259Z" fill="#43425D"/>
<path d="M4.14514 7.83752H2.80183C2.5112 7.83752 2.27478 8.07394 2.27478 8.36457V9.47736C2.27478 9.76795 2.5112 10.0044 2.80183 10.0044H4.14514C4.43577 10.0044 4.67219 9.768 4.67219 9.47736V8.36457C4.67219 8.07399 4.43577 7.83752 4.14514 7.83752Z" fill="#43425D"/>
<path d="M7.6029 7.83752H6.25959C5.96896 7.83752 5.73254 8.07394 5.73254 8.36457V9.47736C5.73254 9.76795 5.96896 10.0044 6.25959 10.0044H7.6029C7.89353 10.0044 8.12995 9.768 8.12995 9.47736V8.36457C8.12995 8.07399 7.89353 7.83752 7.6029 7.83752Z" fill="#43425D"/>
<path d="M13.8382 6.79596L13.8701 0.883703C13.8703 0.62004 13.7681 0.385468 13.5824 0.223185C13.4152 0.0771766 13.195 0 12.9455 0H0.953827C0.712661 0 0.486572 0.0748253 0.317097 0.210783C0.1124 0.375002 -0.000230162 0.614001 3.5314e-07 0.883703L0.00935927 11.5942C0.00991251 12.1319 0.447108 12.5861 0.964154 12.5861H9.19848C9.85642 14.0097 11.2978 15 12.9663 15C15.2537 15 17.1145 13.1391 17.1145 10.8517C17.1145 8.86341 15.7082 7.19756 13.8382 6.79596ZM8.818 10.8517C8.818 10.9388 8.82099 11.0251 8.82634 11.1108H1.50112C1.44091 11.0935 1.33339 10.9974 1.30675 10.9382V3.4835C1.35147 3.47009 1.41642 3.45773 1.48945 3.45773H12.3254V6.75299C10.3412 7.06202 8.818 8.78231 8.818 10.8517ZM12.9663 13.4566C11.5299 13.4566 10.3613 12.2881 10.3613 10.8517C10.3613 9.4154 11.5299 8.24687 12.9663 8.24687C14.4026 8.24687 15.5711 9.4154 15.5711 10.8517C15.5711 12.2881 14.4026 13.4566 12.9663 13.4566Z" fill="#43425D"/>
</svg>
