<svg width="13" height="15" viewBox="0 0 13 15" fill="none" xmlns="http://www.w3.org/2000/svg">
<g clip-path="url(#clip0_5_3)">
<path fill-rule="evenodd" clip-rule="evenodd" d="M6.31583 14.7365C6.31583 14.7365 12.2369 10.7892 12.2369 6.18395C12.2369 4.61358 11.613 3.10754 10.5026 1.99713C9.39225 0.886714 7.88619 0.262894 6.31583 0.262894C4.74547 0.262894 3.23942 0.886714 2.12901 1.99713C1.0186 3.10754 0.394775 4.61358 0.394775 6.18395C0.394775 10.7892 6.31583 14.7365 6.31583 14.7365ZM8.28951 6.18395C8.28951 7.27398 7.40586 8.15762 6.31583 8.15762C5.22579 8.15762 4.34214 7.27398 4.34214 6.18395C4.34214 5.09391 5.22579 4.21026 6.31583 4.21026C7.40586 4.21026 8.28951 5.09391 8.28951 6.18395Z" fill="#43425D"/>
</g>
<defs>
<clipPath id="clip0_5_3">
<rect width="12.6316" height="15" fill="white"/>
</clipPath>
</defs>
</svg>
