<svg width="15" height="26" viewBox="0 0 15 26" fill="none" xmlns="http://www.w3.org/2000/svg">
<g clip-path="url(#clip0_8_2)">
<path d="M3.49606 25.3627L13.4961 14.3627C13.8305 13.9946 14.0159 13.5151 14.0159 13.0177C14.0159 12.5204 13.8305 12.0408 13.4961 11.6727L3.49606 0.672739C3.32046 0.474759 3.10726 0.313609 2.86896 0.198619C2.63056 0.0836287 2.37166 0.0170988 2.10746 0.00288874C1.84316 -0.0113312 1.57866 0.0270488 1.32936 0.115789C1.07996 0.204539 0.850758 0.341889 0.654858 0.519889C0.459058 0.697889 0.300457 0.912989 0.188357 1.15273C0.0761562 1.39247 0.0127565 1.65208 0.00175651 1.91651C-0.00934349 2.18094 0.0322565 2.44493 0.123957 2.69319C0.215657 2.94145 0.355757 3.16903 0.536157 3.36274L9.31616 13.0177L0.539158 22.6727C0.189858 23.0664 0.00985636 23.5819 0.0381563 24.1074C0.0663563 24.6329 0.300657 25.1261 0.690157 25.4801C1.07966 25.834 1.59286 26.0202 2.11876 25.9982C2.64456 25.9763 3.14056 25.7479 3.49916 25.3627H3.49606Z" fill="#43425D"/>
</g>
<defs>
<clipPath id="clip0_8_2">
<rect width="15" height="26" fill="white"/>
</clipPath>
</defs>
</svg>
