<svg width="100" height="100" viewBox="0 0 100 100" fill="none" xmlns="http://www.w3.org/2000/svg">
<g clip-path="url(#clip0_41_2)">
<path d="M85.3555 14.6445C75.9115 5.20103 63.3555 0 50 0C36.6445 0 24.0885 5.20103 14.6445 14.6445C5.20103 24.0885 0 36.6445 0 50C0 63.3555 5.20103 75.9115 14.6445 85.3555C24.0885 94.799 36.6445 100 50 100C63.3555 100 75.9115 94.799 85.3555 85.3555C94.799 75.9115 100 63.3555 100 50C100 36.6445 94.799 24.0885 85.3555 14.6445ZM50 93.8144C25.8406 93.8144 6.18557 74.1594 6.18557 50C6.18557 25.8406 25.8406 6.18557 50 6.18557C74.1594 6.18557 93.8144 25.8406 93.8144 50C93.8144 74.1594 74.1594 93.8144 50 93.8144Z" fill="#43425D"/>
<path d="M37.3323 69.3969L70.915 50L37.3323 30.6031V69.3969Z" fill="#43425D"/>
</g>
<defs>
<clipPath id="clip0_41_2">
<rect width="100" height="100" fill="white"/>
</clipPath>
</defs>
</svg>
