<svg width="44" height="25" viewBox="0 0 44 25" fill="none" xmlns="http://www.w3.org/2000/svg">
<path d="M43.2511 11.1946L38.7268 6.77754C34.2471 2.40522 28.2743 0 21.8991 0C15.524 0 9.55115 2.40522 5.07153 6.77754L0.547213 11.1946C-0.463159 12.2944 0.162735 13.4657 0.547213 13.8054L5.07153 18.2225C9.55115 22.5948 15.524 25 21.8991 25C28.2743 25 34.2471 22.5948 38.7268 18.2225L43.2511 13.8054C43.6087 13.4657 44.2972 12.3391 43.2511 11.1946ZM21.8991 18.7411C18.4567 18.7411 15.6581 15.9424 15.6581 12.5C15.6581 9.05758 18.4567 6.25894 21.8991 6.25894C25.3416 6.25894 28.1402 9.05758 28.1402 12.5C28.1402 15.9424 25.3416 18.7411 21.8991 18.7411ZM4.4367 12.5L7.62876 9.38841C10.0429 7.0279 12.9757 5.34693 16.1856 4.43491C13.6642 6.23212 12.019 9.17382 12.019 12.4911C12.019 15.8083 13.6642 18.7589 16.1856 20.5472C12.9757 19.6352 10.0429 17.9542 7.62876 15.6026L4.4367 12.5ZM36.1785 15.6116C33.7643 17.9632 30.8316 19.6441 27.6216 20.5562C30.1431 18.7589 31.7883 15.8172 31.7883 12.5C31.7883 9.17382 30.1431 6.23212 27.6216 4.44385C30.8316 5.35587 33.7643 7.03684 36.1785 9.39735L39.3616 12.5089L36.1785 15.6116Z" fill="#43425D"/>
</svg>
