<svg width="20" height="12" viewBox="0 0 20 12" fill="none" xmlns="http://www.w3.org/2000/svg">
<path d="M19.7466 5.11096L17.681 3.09434C15.6358 1.09812 12.9088 0 9.99821 0C7.08758 0 4.36065 1.09812 2.31545 3.09434L0.249834 5.11096C-0.211459 5.61307 0.0742979 6.14785 0.249834 6.30297L2.31545 8.3196C4.36065 10.3158 7.08758 11.4139 9.99821 11.4139C12.9088 11.4139 15.6358 10.3158 17.681 8.3196L19.7466 6.30297C19.9099 6.14785 20.2242 5.63349 19.7466 5.11096ZM9.99821 8.55637C8.42655 8.55637 7.14881 7.27863 7.14881 5.70697C7.14881 4.13531 8.42655 2.85757 9.99821 2.85757C11.5699 2.85757 12.8476 4.13531 12.8476 5.70697C12.8476 7.27863 11.5699 8.55637 9.99821 8.55637ZM2.02561 5.70697L3.48297 4.28635C4.58517 3.20864 5.92414 2.44118 7.38967 2.02479C6.23847 2.84532 5.48734 4.18837 5.48734 5.70288C5.48734 7.21739 6.23847 8.56453 7.38967 9.38098C5.92414 8.96459 4.58517 8.19713 3.48297 7.1235L2.02561 5.70697ZM16.5175 7.12758C15.4153 8.20121 14.0764 8.96867 12.6108 9.38506C13.762 8.56453 14.5132 7.22148 14.5132 5.70697C14.5132 4.18837 13.762 2.84532 12.6108 2.02887C14.0764 2.44526 15.4153 3.21272 16.5175 4.29043L17.9708 5.71105L16.5175 7.12758Z" fill="#43425D"/>
</svg>
