<svg width="96" height="96" viewBox="0 0 96 96" fill="none" xmlns="http://www.w3.org/2000/svg">
<g clip-path="url(#clip0_25_2)">
<path fill-rule="evenodd" clip-rule="evenodd" d="M48 87.807C49.3014 87.807 50.5883 87.7445 51.8576 87.6225L47.9109 80.4156C31.8813 80.4156 20.0661 70.2634 16.386 54.7681C15.2891 50.1499 15.4008 40.0751 18.4094 34.9716C18.5325 34.7629 18.7588 34.6419 19.0012 34.6419H53.2542C64.0297 34.6419 64.0297 54.7681 53.2542 54.7681H41.7662L59.0176 86.2627C75.6432 81.4841 87.807 66.1625 87.807 48C87.807 26.0151 69.9849 8.19295 48 8.19295C36.2534 8.19295 25.6954 13.2808 18.409 21.3729H29.2096C37.9725 15.1035 48.9796 15.3172 53.3432 16.1187C60.9128 17.0983 73.2913 22.8868 78.6345 37.1354C85.4738 59.2208 71.243 72.757 62.6048 77.2096L54.59 62.3377C60.1113 61.5362 65.0983 58.4549 67.5918 52.1855C70.0853 45.9161 68.7713 40.2523 67.5918 37.1354C66.4124 34.0186 61.3581 27.0724 53.4323 27.0724H14.1315C10.3664 33.1528 8.19295 40.3225 8.19295 48C8.19295 69.9849 26.0151 87.807 48 87.807ZM48 96C74.5097 96 96 74.5097 96 48C96 21.4903 74.5097 0 48 0C21.4903 0 0 21.4903 0 48C0 74.5097 21.4903 96 48 96Z" fill="#43425D"/>
</g>
<defs>
<clipPath id="clip0_25_2">
<rect width="96" height="96" fill="white"/>
</clipPath>
</defs>
</svg>
