<svg width="76" height="76" viewBox="0 0 76 76" fill="none" xmlns="http://www.w3.org/2000/svg">
<path d="M65.4637 75.9998C65.0763 75.9998 64.6887 75.8521 64.3932 75.5564L37.9998 49.1629L11.6063 75.5564C11.015 76.1476 10.0564 76.1476 9.46506 75.5564L0.443176 66.5344C-0.148051 65.9432 -0.148051 64.9845 0.443176 64.3932L26.8367 37.9998L0.443176 11.6063C-0.148051 11.015 -0.148051 10.0564 0.443176 9.46506L9.46521 0.443176C10.0564 -0.148051 11.015 -0.148051 11.6064 0.443176L37.9998 26.8367L64.3933 0.443176C64.9845 -0.148051 65.9432 -0.148051 66.5345 0.443176L75.5566 9.46521C76.1478 10.0564 76.1478 11.015 75.5566 11.6064L49.1629 37.9998L75.5564 64.3933C76.1476 64.9845 76.1476 65.9432 75.5564 66.5345L66.5344 75.5566C66.2387 75.8519 65.8513 75.9998 65.4637 75.9998ZM37.9998 45.5079C38.3872 45.5079 38.7748 45.6556 39.0703 45.9513L65.4637 72.3448L72.3447 65.4638L45.9513 39.0705C45.3601 38.4792 45.3601 37.5206 45.9513 36.9293L72.3448 10.5357L65.4637 3.65477L39.0703 30.0484C38.4791 30.6397 37.5205 30.6397 36.9291 30.0484L10.5357 3.65477L3.65477 10.5357L30.0483 36.9293C30.6395 37.5205 30.6395 38.4791 30.0483 39.0705L3.65477 65.4637L10.5357 72.3447L36.9293 45.9511C37.2249 45.6556 37.6124 45.5079 37.9998 45.5079Z" fill="#CF0000"/>
<path d="M63.1315 61.9203C62.7441 61.9203 62.3565 61.7726 62.061 61.4769L45.1048 44.5207C44.5136 43.9295 44.5136 42.9709 45.1048 42.3795C45.696 41.7883 46.6546 41.7883 47.246 42.3795L64.2022 59.3357C64.7934 59.9269 64.7934 60.8855 64.2022 61.4769C63.9063 61.7726 63.5189 61.9203 63.1315 61.9203Z" fill="#CF0000"/>
<path d="M68.3546 67.1433C67.9672 67.1433 67.5796 66.9956 67.2841 66.7L66.149 65.5649C65.5578 64.9736 65.5578 64.015 66.149 63.4236C66.7402 62.8323 67.6988 62.8324 68.2902 63.4236L69.4253 64.5587C70.0165 65.15 70.0165 66.1086 69.4253 66.7C69.1296 66.9956 68.742 67.1433 68.3546 67.1433Z" fill="#CF0000"/>
</svg>
