<svg width="76" height="76" viewBox="0 0 76 76" fill="none" xmlns="http://www.w3.org/2000/svg">
<g clip-path="url(#clip0_72_2)">
<path d="M61.9316 17.675L29.8007 48.7378L20.1118 39.3807L6.05554 52.9864L29.7934 75.9419L76 31.2783L61.9316 17.675ZM13.0219 52.9864L20.1239 46.1218L29.8128 55.4764L61.9316 24.4137L69.0336 31.2783L29.7934 69.2032L13.0219 52.9864Z" fill="#5FAC09"/>
<path d="M55.8761 6.79679L64.7778 15.403L68.1447 11.9198L55.8761 0.058136L46.7758 8.85569L50.1451 12.3364L55.8761 6.79679Z" fill="#5FAC09"/>
<path d="M46.6622 15.7021L43.2938 12.2204L39.8121 15.5888L43.1805 19.0705L46.6622 15.7021Z" fill="#5FAC09"/>
<path d="M39.6958 22.438L36.3274 18.9562L32.8457 22.3246L36.214 25.8063L39.6958 22.438Z" fill="#5FAC09"/>
<path d="M12.4333 40.6499L6.96634 35.3695L14.0683 28.5048L23.7452 37.8595L32.7292 29.1734L29.3623 25.6902L23.7452 31.1209L14.0683 21.7662L0 35.3695L9.06642 44.1355L12.4333 40.6499Z" fill="#5FAC09"/>
</g>
<defs>
<clipPath id="clip0_72_2">
<rect width="76" height="76" fill="white"/>
</clipPath>
</defs>
</svg>
