<svg width="32" height="25" viewBox="0 0 32 25" fill="none" xmlns="http://www.w3.org/2000/svg">
<path d="M0.621828 12.3442C0.784725 12.3442 0.947622 12.2815 1.06666 12.1562L11.7114 1.5115L15.4267 5.2268C15.6334 4.85715 15.9279 4.53762 16.2725 4.29954L12.1562 0.183259C11.9119 -0.0610864 11.5109 -0.0610864 11.2665 0.183259L0.183259 11.2728C-0.0610864 11.5171 -0.0610864 11.9119 0.183259 12.1562C0.302299 12.2815 0.465196 12.3442 0.621828 12.3442Z" fill="#FB830B"/>
<path d="M11.7114 3.28458L2.19446 12.7953V24.3735C2.19446 24.7181 2.4764 25 2.82099 25H8.33442V17.9704C8.33442 17.6258 8.61636 17.3438 8.96095 17.3438H14.4619C14.8065 17.3438 15.0884 17.6258 15.0884 17.9704V25H20.6018C20.9464 25 21.2284 24.7181 21.2284 24.3735V16.7549H17.8263C16.3039 16.7549 15.0633 15.5144 15.0633 13.9919V6.6365L11.7114 3.28458Z" fill="#FB830B"/>
<path d="M17.8263 15.5018H29.8181C30.6451 15.5018 31.3217 14.8252 31.3217 13.9919V6.58636C31.3217 5.75308 30.6451 5.07643 29.8181 5.07643H27.6064V3.5477C27.6064 2.83346 27.0238 2.25079 26.3095 2.25079H21.3349C20.6207 2.25079 20.038 2.83346 20.038 3.5477V5.07643H17.8263C16.9931 5.07643 16.3164 5.75308 16.3164 6.58636V13.9919C16.3164 14.8252 16.9931 15.5018 17.8263 15.5018ZM21.3349 3.50385L26.3534 3.5477V5.07643H21.3036L21.3349 3.50385Z" fill="#FB830B"/>
</svg>
