<svg width="29" height="25" viewBox="0 0 29 25" fill="none" xmlns="http://www.w3.org/2000/svg">
<path d="M0.832056 20H22.6098C22.8051 20 22.9939 19.9316 23.1436 19.8071C23.3528 19.6319 28.1243 15.5272 28.4152 6.66666H5.02638C4.73655 14.7096 0.342224 18.4901 0.296557 18.5278C0.0288356 18.754 -0.0696642 19.1235 0.05078 19.4523C0.170391 19.7802 0.482112 20 0.832056 20Z" fill="#43425D"/>
<path d="M27.6097 1.66666H23.443V0.833331C23.443 0.366666 23.0764 0 22.6097 0C22.1431 0 21.7764 0.366666 21.7764 0.833331V1.66666H17.5542V0.833331C17.5542 0.366666 17.1875 0 16.7208 0C16.2542 0 15.8875 0.366666 15.8875 0.833331V1.66666H11.7209V0.833331C11.7209 0.366666 11.3542 0 10.8875 0C10.4209 0 10.0542 0.366666 10.0542 0.833331V1.66666H5.88753C5.42087 1.66666 5.0542 2.03333 5.0542 2.49999V4.99999H28.443V2.49999C28.443 2.03333 28.0764 1.66666 27.6097 1.66666Z" fill="#43425D"/>
<path d="M24.2137 21.0848C23.7612 21.4615 23.1932 21.6667 22.6097 21.6667H5.0542V24.1667C5.0542 24.6273 5.42692 25 5.88753 25H27.6097C28.0703 25 28.443 24.6273 28.443 24.1667V14.8252C26.8364 18.7669 24.5944 20.7662 24.2137 21.0848Z" fill="#43425D"/>
</svg>
