<svg width="25" height="25" viewBox="0 0 25 25" fill="none" xmlns="http://www.w3.org/2000/svg">
<g clip-path="url(#clip0_14_44)">
<path d="M22.6175 0H2.38242C1.80674 0 1.33838 0.46836 1.33838 1.04405C1.33838 1.24981 1.50518 1.41656 1.71089 1.41656C1.9166 1.41656 2.0834 1.24981 2.0834 1.04405C2.0834 0.879152 2.21753 0.745021 2.38242 0.745021H22.6175C22.7824 0.745021 22.9165 0.879152 22.9165 1.04405V23.956C22.9165 24.1208 22.7824 24.255 22.6175 24.255H21.4275C21.2218 24.255 21.055 24.4217 21.055 24.6275C21.055 24.8333 21.2218 25 21.4275 25H22.6175C23.1932 25 23.6616 24.5316 23.6616 23.956V1.04405C23.6616 0.46836 23.1931 0 22.6175 0Z" fill="#43425D"/>
<path d="M19.2612 24.255H2.38242C2.21753 24.255 2.0834 24.1209 2.0834 23.956V2.78633C2.0834 2.58057 1.9166 2.41382 1.71089 2.41382C1.50518 2.41382 1.33838 2.58057 1.33838 2.78633V23.956C1.33838 24.5316 1.80674 25 2.38242 25H19.2612C19.467 25 19.6337 24.8332 19.6337 24.6275C19.6337 24.4217 19.467 24.255 19.2612 24.255Z" fill="#43425D"/>
<path d="M7.91505 4.21408H4.88203C4.67632 4.21408 4.50952 4.38083 4.50952 4.58659V7.61951C4.50952 7.82527 4.67632 7.99202 4.88203 7.99202H7.915C8.12071 7.99202 8.28751 7.82527 8.28751 7.61951V4.58659C8.28751 4.38078 8.12076 4.21408 7.91505 4.21408ZM7.54253 7.247H5.25459V4.9591H7.54253V7.247Z" fill="#43425D"/>
<path d="M7.91505 10.2011H4.88203C4.67632 10.2011 4.50952 10.3678 4.50952 10.5736V13.6066C4.50952 13.8123 4.67632 13.9791 4.88203 13.9791H7.915C8.12071 13.9791 8.28751 13.8123 8.28751 13.6066V10.5736C8.28751 10.3678 8.12076 10.2011 7.91505 10.2011ZM7.54253 13.234H5.25459V10.9461H7.54253V13.234Z" fill="#43425D"/>
<path d="M7.91505 16.1882H4.88203C4.67632 16.1882 4.50952 16.3549 4.50952 16.5607V19.5936C4.50952 19.7994 4.67632 19.9662 4.88203 19.9662H7.915C8.12071 19.9662 8.28751 19.7994 8.28751 19.5936V16.5607C8.28751 16.3549 8.12076 16.1882 7.91505 16.1882ZM7.54253 19.2211H5.25459V16.9332H7.54253V19.2211Z" fill="#43425D"/>
<path d="M20.4334 4.21408H10.1752C9.96953 4.21408 9.80273 4.38083 9.80273 4.58659V7.61951C9.80273 7.82527 9.96953 7.99202 10.1752 7.99202H20.4333C20.6391 7.99202 20.8058 7.82527 20.8058 7.61951V4.58659C20.8059 4.38078 20.6391 4.21408 20.4334 4.21408ZM10.5478 7.247V4.9591H20.0609V7.247H10.5478Z" fill="#43425D"/>
<path d="M20.4334 10.2011H10.1752C9.96953 10.2011 9.80273 10.3678 9.80273 10.5736V13.6066C9.80273 13.8123 9.96953 13.9791 10.1752 13.9791H20.4333C20.6391 13.9791 20.8058 13.8123 20.8058 13.6066V10.5736C20.8059 10.3678 20.6391 10.2011 20.4334 10.2011ZM10.5478 13.234V10.9461H20.0609V13.234H10.5478Z" fill="#43425D"/>
<path d="M20.4334 16.1882H10.1752C9.96953 16.1882 9.80273 16.3549 9.80273 16.5607V19.5936C9.80273 19.7994 9.96953 19.9662 10.1752 19.9662H20.4333C20.6391 19.9662 20.8058 19.7994 20.8058 19.5936V16.5607C20.8059 16.3549 20.6391 16.1882 20.4334 16.1882ZM10.5478 19.2211V16.9332H20.0609V19.2211H10.5478Z" fill="#43425D"/>
</g>
<defs>
<clipPath id="clip0_14_44">
<rect width="25" height="25" fill="white"/>
</clipPath>
</defs>
</svg>
