<svg viewBox="0 0 24 24" xmlns="http://www.w3.org/2000/svg"><g id="community" fill="rgb(0,0,0)" fill-rule="nonzero"><path id="Rectangle" d="m15 15c-3.5427358 0-5.0841906 1.2385137-4.9981513 4h9.9963026c.0860393-2.7614863-1.4554155-4-4.9981513-4zm0-2c5.0517802 0 7.5197907 2.5030577 6.9073472 7.131187-.0658005.4972427-.4897802.868813-.9913576.868813h-11.83197916c-.50157749 0-.92555718-.3715703-.99135764-.868813-.61244353-4.6281293 1.85556698-7.131187 6.9073472-7.131187z"></path><path id="Oval" d="m15 12c-2.209139 0-4-1.790861-4-4s1.790861-4 4-4 4 1.790861 4 4-1.790861 4-4 4zm0-2c1.1045695 0 2-.8954305 2-2s-.8954305-2-2-2-2 .8954305-2 2 .8954305 2 2 2z"></path><path id="Path" d="m6 16c.55228475 0 1 .4477153 1 1s-.44771525 1-1 1h-2.94399304c-.50157748 0-.92555718-.3715703-.99135764-.868813-.43600261-3.294796 1.37467572-5.131187 4.93535068-5.131187.38765178 0 .75350594.020479 1.09785011.0619309.5483261.066007.93932297.5640224.87331595 1.1123485-.06600703.5483261-.56402243.939323-1.11234853.8733159-.26221837-.0315656-.54858676-.0475953-.85881753-.0475953-2.02801566 0-2.92774085.5910004-2.99745861 2z"></path><path id="Oval-Copy" d="m7 11c-1.65685425 0-3-1.34314575-3-3s1.34314575-3 3-3 3 1.34314575 3 3-1.34314575 3-3 3zm0-2c.55228475 0 1-.44771525 1-1s-.44771525-1-1-1-1 .44771525-1 1 .44771525 1 1 1z"></path></g></svg>