<svg width="30" height="25" viewBox="0 0 30 25" fill="none" xmlns="http://www.w3.org/2000/svg">
<path d="M19.1164 16.1765C13.9065 16.1765 11.6396 17.9978 11.7662 22.0588H26.4666C26.5931 17.9978 24.3263 16.1765 19.1164 16.1765ZM19.1164 13.2353C26.5455 13.2353 30.1749 16.9163 29.2742 23.7223C29.1775 24.4536 28.554 25 27.8164 25H10.4164C9.67877 25 9.05528 24.4536 8.95851 23.7223C8.05786 16.9163 11.6873 13.2353 19.1164 13.2353Z" fill="#43425D"/>
<path d="M19.1167 11.7647C15.868 11.7647 13.2344 9.13109 13.2344 5.88235C13.2344 2.63362 15.868 0 19.1167 0C22.3655 0 24.9991 2.63362 24.9991 5.88235C24.9991 9.13109 22.3655 11.7647 19.1167 11.7647ZM19.1167 8.82353C20.7411 8.82353 22.0579 7.50672 22.0579 5.88235C22.0579 4.25799 20.7411 2.94118 19.1167 2.94118C17.4924 2.94118 16.1756 4.25799 16.1756 5.88235C16.1756 7.50672 17.4924 8.82353 19.1167 8.82353Z" fill="#43425D"/>
<path d="M5.88128 17.6471C6.69347 17.6471 7.35187 18.3055 7.35187 19.1177C7.35187 19.9298 6.69347 20.5882 5.88128 20.5882H1.55188C0.814266 20.5882 0.190767 20.0418 0.0940014 19.3106C-0.547179 14.4653 2.11558 11.7647 7.35187 11.7647C7.92195 11.7647 8.45997 11.7948 8.96635 11.8558C9.77272 11.9529 10.3477 12.6852 10.2506 13.4916C10.1536 14.298 9.4212 14.8729 8.61484 14.7759C8.22922 14.7295 7.80809 14.7059 7.35187 14.7059C4.36949 14.7059 3.04637 15.575 2.94384 17.6471H5.88128Z" fill="#43425D"/>
<path d="M7.35195 10.2941C4.9154 10.2941 2.94019 8.3189 2.94019 5.88235C2.94019 3.4458 4.9154 1.47058 7.35195 1.47058C9.7885 1.47058 11.7637 3.4458 11.7637 5.88235C11.7637 8.3189 9.7885 10.2941 7.35195 10.2941ZM7.35195 7.35293C8.16413 7.35293 8.82254 6.69453 8.82254 5.88235C8.82254 5.07016 8.16413 4.41176 7.35195 4.41176C6.53977 4.41176 5.88136 5.07016 5.88136 5.88235C5.88136 6.69453 6.53977 7.35293 7.35195 7.35293Z" fill="#43425D"/>
</svg>
