<svg id="Capa_1" enable-background="new 0 0 512 512" viewBox="0 0 512 512" xmlns="http://www.w3.org/2000/svg"><g><g><path d="m479.63 167.69h-44.783c-11.275-22.816-26.616-43.022-45.657-60.112-3.084-2.767-7.825-2.512-10.591.572-2.767 3.083-2.511 7.824.572 10.592 15.739 14.125 28.734 30.557 38.764 48.948h-62.13c-8.53-31.337-21.462-58.03-37.58-77.456-3.434-4.139-6.983-7.911-10.631-11.309 15.633 4.546 30.652 11.144 44.635 19.718 3.533 2.167 8.15 1.059 10.314-2.473 2.166-3.531 1.058-8.149-2.473-10.314-31.245-19.159-67.232-29.286-104.07-29.286-38.743 0-76.311 11.123-108.643 32.167-30.139 19.616-54.306 46.853-70.179 78.953h-44.808c-17.849 0-32.37 14.517-32.37 32.36v111.9c0 17.843 14.521 32.359 32.37 32.359h44.809c15.873 32.1 40.04 59.337 70.179 78.953 32.331 21.045 69.899 32.168 108.642 32.168s76.311-11.123 108.643-32.167c30.139-19.616 54.306-46.853 70.179-78.953h44.809c17.849 0 32.37-14.517 32.37-32.359v-111.9c-.001-17.844-14.522-32.361-32.371-32.361zm-139.398 0h-76.732v-95.534c31.928 4.933 61.027 41.056 76.732 95.534zm-168.464 0c15.705-54.478 44.804-90.601 76.732-95.534v95.534zm-16.228 243.001c-25.777-16.778-46.836-39.575-61.471-66.382h62.127c8.53 31.337 21.462 58.03 37.58 77.456 3.449 4.157 7.013 7.943 10.677 11.351-17.229-5.003-33.7-12.523-48.913-22.425zm184.692-66.381c-15.705 54.478-44.804 90.601-76.732 95.534v-95.534zm-91.732 95.534c-31.928-4.933-61.027-41.056-76.732-95.534h76.732zm248.5-127.894c0 9.572-7.792 17.359-17.37 17.359h-72.77c-4.142 0-7.5 3.357-7.5 7.5s3.358 7.5 7.5 7.5h11.071c-14.635 26.807-35.695 49.604-61.471 66.382-15.213 9.902-31.683 17.422-48.913 22.425 3.664-3.408 7.229-7.194 10.677-11.351 16.118-19.426 29.05-46.119 37.58-77.456h16.055c4.142 0 7.5-3.357 7.5-7.5s-3.358-7.5-7.5-7.5h-339.489c-9.578 0-17.37-7.787-17.37-17.359v-111.9c0-9.572 7.792-17.359 17.37-17.359h49.459c.012 0 .024.002.036.002.009 0 .018-.002.028-.002h23.917c4.142 0 7.5-3.357 7.5-7.5s-3.358-7.5-7.5-7.5h-11.741c14.635-26.807 35.695-49.604 61.471-66.382 15.213-9.902 31.683-17.422 48.913-22.425-3.664 3.408-7.229 7.194-10.677 11.351-16.118 19.426-29.05 46.119-37.58 77.456h-15.386c-4.142 0-7.5 3.357-7.5 7.5s3.358 7.5 7.5 7.5h338.82c9.578 0 17.37 7.787 17.37 17.359z"></path><path d="m139.992 208.094c-4.142.04-7.467 3.431-7.427 7.572l.546 56.473-41.89-60.658c-1.865-2.7-5.271-3.873-8.403-2.898-3.134.977-5.268 3.878-5.268 7.16v79.421c0 4.143 3.358 7.5 7.5 7.5s7.5-3.357 7.5-7.5v-55.362l40.029 57.965c2.301 3.324 6.101 4.75 9.68 3.633 3.675-1.147 6.049-4.647 6.048-8.989l-.743-76.888c-.041-4.143-3.47-7.48-7.572-7.429z"></path><path d="m213.555 223.457c4.142 0 7.5-3.357 7.5-7.5s-3.358-7.5-7.5-7.5h-33.222c-4.142 0-7.5 3.357-7.5 7.5v78.843c0 4.143 3.358 7.5 7.5 7.5h33.222c4.142 0 7.5-3.357 7.5-7.5s-3.358-7.5-7.5-7.5h-25.722v-24.422h23.272c4.142 0 7.5-3.357 7.5-7.5s-3.358-7.5-7.5-7.5h-23.272v-24.421z"></path><path d="m412.513 248.97c-10.172-3.753-19.612-7.848-22.071-8.928-2.395-1.774-3.555-4.596-3.117-7.647.559-3.892 3.566-7.021 8.045-8.369 12.536-3.782 23.904 5.31 24.154 5.513 3.17 2.639 7.88 2.222 10.539-.938 2.665-3.171 2.255-7.902-.916-10.567-.709-.597-17.62-14.539-38.104-8.37-10.063 3.032-17.177 10.926-18.566 20.601-1.295 9.021 2.612 17.694 10.195 22.639.332.217.679.406 1.041.567.458.204 11.343 5.05 23.608 9.573 8.595 3.171 12.966 8.112 11.994 13.558-.971 5.438-7.336 11.063-16.308 11.063-8.588 0-16.876-3.488-22.171-9.331-2.782-3.069-7.524-3.303-10.594-.521s-3.303 7.524-.521 10.594c8.091 8.929 20.534 14.259 33.286 14.259 15.331 0 28.689-10.071 31.074-23.427 1.808-10.122-2.91-23.387-21.568-30.269z"></path><path d="m341.385 208.384c-4.057-.808-8.011 1.829-8.82 5.892l-11.109 55.818-17.47-56.708c-1.219-3.959-5.417-6.179-9.375-4.96-2.733.842-4.637 3.105-5.152 5.728l-17.316 55.943-11.069-55.958c-.803-4.063-4.748-6.707-8.813-5.902-4.063.804-6.706 4.749-5.902 8.812l15.503 78.375c.071.359.168.712.291 1.057 1.317 3.705 4.832 6.183 8.759 6.183h.065c3.954-.027 7.464-2.562 8.736-6.305.022-.065.043-.13.063-.195l17.048-55.077 16.972 55.091c.031.102.064.202.1.302 1.316 3.706 4.831 6.185 8.759 6.185h.064c3.954-.027 7.466-2.561 8.738-6.305.105-.311.19-.628.255-.949l15.565-78.206c.808-4.064-1.829-8.013-5.892-8.821z"></path></g></g></svg>