<svg width="23" height="25" viewBox="0 0 23 25" fill="none" xmlns="http://www.w3.org/2000/svg">
<path d="M2.43032 17.1688L7.60837 21.8115L18.5916 9.57093L13.4127 4.92586L2.43032 17.1688ZM12.115 10.6084L5.94851 17.4827C5.87102 17.5681 5.76347 17.6211 5.64802 17.6274C5.53256 17.6346 5.41869 17.5942 5.33328 17.5159L5.02725 17.2407C4.84853 17.0802 4.83351 16.805 4.99404 16.6263L11.1606 9.75202C11.2381 9.66582 11.3456 9.61363 11.4611 9.6073C11.5765 9.60098 11.6904 9.64131 11.7758 9.71801L12.0818 9.99242C12.2606 10.1537 12.2748 10.4289 12.115 10.6084ZM13.9085 7.34012L14.2138 7.61374C14.3941 7.77427 14.4083 8.05025 14.2478 8.22897L13.7116 8.8268C13.6326 8.91299 13.5258 8.9644 13.4104 8.97151C13.2949 8.97784 13.1818 8.9383 13.0956 8.8608L12.7896 8.5864C12.7042 8.5089 12.652 8.40136 12.6441 8.28511C12.6378 8.16966 12.6781 8.05579 12.7564 7.97038L13.2925 7.37255C13.4538 7.19383 13.7298 7.1788 13.9085 7.34012ZM15.1849 2.95127L20.3621 7.59555L19.0906 9.01342L13.9141 4.36915L15.1849 2.95127ZM22.4443 3.01849L19.5097 0.385178C18.8905 -0.170744 17.9392 -0.118552 17.384 0.500632L15.6538 2.43015L20.8319 7.07363L22.5621 5.1457C22.8278 4.84836 22.9678 4.45693 22.9433 4.05837C22.9211 3.65902 22.7416 3.28498 22.4443 3.01849ZM20.7251 5.13858L17.5865 2.32418L18.4927 1.31514L21.6306 4.12875L20.7251 5.13858ZM0.0294947 24.0423C-0.0503745 24.3191 0.0350303 24.6172 0.248542 24.8078C0.462054 24.9999 0.767296 25.0529 1.033 24.9446L6.98681 22.5058L1.81034 17.8615L0.0294947 24.0423ZM5.29216 22.2116L2.95302 23.1693L1.58497 21.942L2.28481 19.5135L5.29216 22.2116Z" fill="#43425D"/>
</svg>
