<svg width="24" height="26" viewBox="0 0 24 26" fill="none" xmlns="http://www.w3.org/2000/svg">
<g clip-path="url(#clip0_31_8)">
<path d="M10.5199 25.3627L0.51981 14.3627C0.18533 13.9946 0 13.5151 0 13.0177C0 12.5204 0.18533 12.0408 0.51981 11.6727L10.5199 0.672739C10.6955 0.474759 10.9087 0.313609 11.147 0.198619C11.3854 0.0836287 11.6443 0.0170988 11.9085 0.00288874C12.1728 -0.0113312 12.4373 0.0270488 12.6866 0.115789C12.936 0.204539 13.1652 0.341889 13.3611 0.519889C13.5569 0.697889 13.7155 0.912989 13.8276 1.15273C13.9398 1.39247 14.0032 1.65208 14.0142 1.91651C14.0253 2.18094 13.9837 2.44493 13.892 2.69319C13.8003 2.94145 13.6602 3.16903 13.4798 3.36274L4.69976 13.0177L13.4768 22.6727C13.8261 23.0664 14.0061 23.5819 13.9778 24.1074C13.9496 24.6329 13.7153 25.1261 13.3258 25.4801C12.9363 25.834 12.4231 26.0202 11.8972 25.9982C11.3714 25.9763 10.8754 25.7479 10.5168 25.3627H10.5199Z" fill="#43425D"/>
</g>
<g clip-path="url(#clip1_31_8)">
<path d="M19.5199 25.3627L9.51981 14.3627C9.18533 13.9946 9 13.5151 9 13.0177C9 12.5204 9.18533 12.0408 9.51981 11.6727L19.5199 0.672739C19.6955 0.474759 19.9087 0.313609 20.147 0.198619C20.3854 0.0836287 20.6443 0.0170988 20.9085 0.00288874C21.1728 -0.0113312 21.4373 0.0270488 21.6866 0.115789C21.936 0.204539 22.1652 0.341889 22.3611 0.519889C22.5569 0.697889 22.7155 0.912989 22.8276 1.15273C22.9398 1.39247 23.0032 1.65208 23.0142 1.91651C23.0253 2.18094 22.9837 2.44493 22.892 2.69319C22.8003 2.94145 22.6602 3.16903 22.4798 3.36274L13.6998 13.0177L22.4768 22.6727C22.8261 23.0664 23.0061 23.5819 22.9778 24.1074C22.9496 24.6329 22.7153 25.1261 22.3258 25.4801C21.9363 25.834 21.4231 26.0202 20.8972 25.9982C20.3714 25.9763 19.8754 25.7479 19.5168 25.3627H19.5199Z" fill="#43425D"/>
</g>
<defs>
<clipPath id="clip0_31_8">
<rect width="15" height="26" fill="white"/>
</clipPath>
<clipPath id="clip1_31_8">
<rect width="15" height="26" fill="white" transform="translate(9)"/>
</clipPath>
</defs>
</svg>
