<svg width="25" height="25" viewBox="0 0 25 25" fill="none" xmlns="http://www.w3.org/2000/svg">
<g clip-path="url(#clip0_16_95)">
<path d="M12.4997 0C5.59639 0 0 5.59656 0 12.4999C0 19.403 5.59639 25 12.4997 25C19.403 25 24.9998 19.403 24.9998 12.4999C24.9998 5.59639 19.403 0 12.4997 0ZM12.5378 18.3971V18.3969H12.4615H7.12207C7.12207 14.4922 10.5514 14.4931 11.3124 13.4721L11.3995 13.0065C10.3304 12.4647 9.5756 11.1584 9.5756 9.63051C9.5756 7.61766 10.8849 5.98564 12.4997 5.98564C14.1145 5.98564 15.4238 7.61766 15.4238 9.63051C15.4238 11.1454 14.6825 12.4435 13.6276 12.994L13.7267 13.5231C14.5616 14.4946 17.8769 14.5579 17.8769 18.3971H12.5378Z" fill="#43425D"/>
<circle cx="19.4999" cy="19.5" r="5" fill="#D9D9D9" stroke="#43425D"/>
<rect x="18.9999" y="16" width="1" height="7" rx="0.5" fill="#43425D"/>
<path d="M22.4999 19C22.7761 19 22.9999 19.2239 22.9999 19.5V19.5C22.9999 19.7762 22.776 20 22.4999 20L16.5053 20C16.2271 20 16.0024 19.7728 16.0054 19.4946V19.4946C16.0084 19.2206 16.2313 19 16.5053 19L22.4999 19Z" fill="#43425D"/>
</g>
<defs>
<clipPath id="clip0_16_95">
<rect width="25" height="25" fill="white"/>
</clipPath>
</defs>
</svg>
