<svg width="25" height="25" viewBox="0 0 25 25" fill="none" xmlns="http://www.w3.org/2000/svg">
<g clip-path="url(#clip0_44_17)">
<path d="M23.2971 16.6257C22.0271 15.6052 20.8622 15.109 19.7357 15.109C18.1061 15.109 16.9327 16.1457 15.8704 17.2076C15.7482 17.3299 15.6003 17.3869 15.405 17.3869C14.5098 17.387 12.935 16.2659 10.7243 14.055C8.12355 11.454 7.14024 9.79978 7.80144 9.13832C9.59387 7.3465 10.1534 5.55025 7.40911 2.13724C6.42666 0.914475 5.46545 0.32019 4.47057 0.32019C3.12886 0.32019 2.10892 1.39269 1.20905 2.33902C1.05347 2.5026 0.906513 2.65713 0.762423 2.80122C-0.254648 3.81821 -0.254126 6.03646 0.763902 8.73537C1.88086 11.6966 4.08624 14.9179 6.97388 17.806C9.20701 20.039 11.6368 21.8436 14.0007 23.0552C16.0645 24.1131 18.0664 24.6799 19.6375 24.6799C19.6377 24.6799 19.6379 24.6799 19.6382 24.6799C20.6214 24.6799 21.4201 24.4654 21.9475 24.0292C23.019 23.1433 25.0133 21.5025 24.9999 19.5534C24.9926 18.5081 24.4198 17.5284 23.2971 16.6257Z" fill="#9A9AB6"/>
</g>
<defs>
<clipPath id="clip0_44_17">
<rect width="25" height="25" fill="white"/>
</clipPath>
</defs>
</svg>
