<svg width="25" height="25" viewBox="0 0 25 25" fill="none" xmlns="http://www.w3.org/2000/svg">
<g clip-path="url(#clip0_14_69)">
<path d="M12.5 25C5.60714 25 0 19.3929 0 12.5C0 5.60714 5.60714 0 12.5 0C19.3929 0 25 5.60714 25 12.5C25 19.3929 19.3929 25 12.5 25ZM12.5 3.16327C7.35204 3.16327 3.16327 7.35204 3.16327 12.5C3.16327 17.648 7.35204 21.8367 12.5 21.8367C17.648 21.8367 21.8367 17.648 21.8367 12.5C21.8367 7.35204 17.648 3.16327 12.5 3.16327Z" fill="#43425D"/>
<path d="M12.3114 9.60714C13.1313 9.60714 13.796 8.94242 13.796 8.12245C13.796 7.30248 13.1313 6.63776 12.3114 6.63776C11.4914 6.63776 10.8267 7.30248 10.8267 8.12245C10.8267 8.94242 11.4914 9.60714 12.3114 9.60714Z" fill="#43425D"/>
<path d="M14.5459 18.3623H13.7959H11.2041H10.4541V16.3776H11.2041V13H10.4643V11.0153H11.2041H13.4235H13.7959V16.3776H14.5459V18.3623Z" fill="#43425D"/>
</g>
<defs>
<clipPath id="clip0_14_69">
<rect width="25" height="25" fill="white"/>
</clipPath>
</defs>
</svg>
