<svg width="25" height="25" viewBox="0 0 25 25" fill="none" xmlns="http://www.w3.org/2000/svg">
<path d="M24.2457 4.3013H21.5594V1.78471C21.5594 1.36813 21.2217 1.0304 20.8051 1.0304H0.754315C0.337732 1.0304 0 1.36813 0 1.78471V21.495C0 22.8595 1.11015 23.9696 2.47465 23.9696H22.5252C23.8897 23.9696 24.9999 22.8595 24.9999 21.495V5.05562C25 4.63904 24.6623 4.3013 24.2457 4.3013ZM1.50863 2.53902H20.0508V5.05552V21.495C20.0508 21.8375 20.1208 22.1641 20.2472 22.461H2.47465C1.94201 22.461 1.50863 22.0276 1.50863 21.495V2.53902ZM22.5253 22.461C21.9928 22.461 21.5594 22.0276 21.5594 21.495V5.80993H23.4914V21.495C23.4914 22.0276 23.058 22.461 22.5253 22.461Z" fill="#43425D"/>
<path d="M3.26091 10.7701H18.2989C18.7155 10.7701 19.0532 10.4324 19.0532 10.0158V4.97456C19.0532 4.55798 18.7155 4.22025 18.2989 4.22025H3.26091C2.84432 4.22025 2.50659 4.55798 2.50659 4.97456V10.0158C2.50659 10.4324 2.84432 10.7701 3.26091 10.7701ZM4.01522 5.72887H17.5446V9.26148H4.01522V5.72887Z" fill="#43425D"/>
<path d="M3.26091 20.6855H9.82928C10.2459 20.6855 10.5836 20.3478 10.5836 19.9312V13.3623C10.5836 12.9458 10.2459 12.608 9.82928 12.608H3.26091C2.84432 12.608 2.50659 12.9458 2.50659 13.3623V19.9312C2.50659 20.3478 2.84432 20.6855 3.26091 20.6855ZM4.01522 14.1166H9.07496V19.1768H4.01522V14.1166Z" fill="#43425D"/>
<path d="M18.2988 12.6079H11.9465C11.5299 12.6079 11.1921 12.9456 11.1921 13.3622C11.1921 13.7788 11.5299 14.1165 11.9465 14.1165H18.2988C18.7154 14.1165 19.0531 13.7788 19.0531 13.3622C19.0531 12.9456 18.7154 12.6079 18.2988 12.6079Z" fill="#43425D"/>
<path d="M18.2988 19.1769H11.9465C11.5299 19.1769 11.1921 19.5146 11.1921 19.9312C11.1921 20.3478 11.5299 20.6855 11.9465 20.6855H18.2988C18.7154 20.6855 19.0531 20.3478 19.0531 19.9312C19.0531 19.5146 18.7154 19.1769 18.2988 19.1769Z" fill="#43425D"/>
<path d="M18.2988 15.892H11.9465C11.5299 15.892 11.1921 16.2297 11.1921 16.6463C11.1921 17.0629 11.5299 17.4006 11.9465 17.4006H18.2988C18.7154 17.4006 19.0531 17.0629 19.0531 16.6463C19.0531 16.2297 18.7154 15.892 18.2988 15.892Z" fill="#43425D"/>
</svg>
