<!-- icon666.com - MILLIONS vector ICONS FREE --><svg id="Layer_1" viewBox="0 0 64 64" xmlns="http://www.w3.org/2000/svg"><g><path d="m22.748 22.979h.68v3.102c0 1.104.896 2 2 2s2-.896 2-2v-3.102h4.637s4.118 3.687 4.121 3.689c.954.854 2.44 1.084 3.606.56 1.225-.55 1.983-1.725 1.979-3.067l-.008-2.374c3.077-.093 5.553-2.619 5.553-5.719 0-3.112-2.496-5.647-5.59-5.721l-.008-2.392c-.003-1.277-.717-2.424-1.861-2.992-1.146-.57-2.489-.442-3.51.329 0 0-4.212 3.185-4.24 3.186h-9.359c-2.605 0-4.726 2.12-4.726 4.726v5.049c0 2.606 2.121 4.726 4.726 4.726zm20.568-6.91c0 .897-.691 1.628-1.566 1.711l-.011-3.424c.881.078 1.577.812 1.577 1.713zm-5.593-6.801.043 13.447-3.538-3.168v-7.637zm-15.701 3.937c0-.4.326-.726.726-.726h7.479v6.5h-7.479c-.4 0-.726-.326-.726-.726z" fill="#000000" style="fill: rgb(67, 66, 93);"></path><path d="m43.942 33.439h-23.885c-2.316 0-4.2 1.915-4.2 4.27v17.409c0 2.354 1.884 4.27 4.2 4.27h23.885c2.316 0 4.201-1.915 4.201-4.27v-17.409c.001-2.355-1.884-4.27-4.201-4.27zm.202 21.679c0 .159-.106.27-.201.27h-23.886c-.095 0-.2-.11-.2-.27v-17.409c0-.159.105-.27.2-.27h23.885c.095 0 .201.11.201.27v17.409z" fill="#000000" style="fill: rgb(67, 66, 93);"></path><path d="m36.644 42.269-3.72-2.147c-1.498-.865-3.288-.865-4.786 0-1.499.865-2.393 2.414-2.393 4.145v4.296c0 1.73.895 3.279 2.393 4.145.749.433 1.571.648 2.393.648s1.644-.216 2.393-.648l3.72-2.147c1.498-.865 2.393-2.415 2.393-4.146-.001-1.731-.895-3.281-2.393-4.146zm-2 4.825-3.72 2.147c-.343.198-.64.086-.786 0-.146-.084-.393-.285-.393-.68v-4.296c0-.395.246-.596.393-.68.087-.051.226-.11.396-.11.118 0 .25.029.391.11l3.72 2.147c.342.197.393.511.393.68-.002.171-.053.484-.394.682z" fill="#000000" style="fill: rgb(67, 66, 93);"></path></g></svg>