<svg width="33" height="25" viewBox="0 0 33 25" fill="none" xmlns="http://www.w3.org/2000/svg">
<path d="M30.0626 6.96485H27.2556C26.5489 5.53477 25.5874 4.26829 24.3939 3.19711C24.2006 3.02368 23.9034 3.03966 23.7301 3.23296C23.5566 3.4262 23.5727 3.72336 23.7659 3.89686C24.7524 4.78219 25.5669 5.81213 26.1956 6.96485H22.3014C21.7667 5.00069 20.9562 3.32761 19.9459 2.11001C19.7307 1.85059 19.5082 1.61416 19.2796 1.40118C20.2594 1.68612 21.2008 2.09967 22.0772 2.63708C22.2987 2.7729 22.5881 2.70345 22.7237 2.48207C22.8595 2.26076 22.79 1.97131 22.5687 1.83561C20.6103 0.634747 18.3547 0 16.0457 0C13.6174 0 11.2627 0.697174 9.23614 2.01618C7.34706 3.24569 5.83231 4.95287 4.83741 6.96485H2.02891C0.910156 6.96485 0 7.87476 0 8.99313V16.0069C0 17.1252 0.910156 18.0351 2.02891 18.0351H4.83747C5.83237 20.0471 7.34713 21.7542 9.2362 22.9838C11.2627 24.3028 13.6174 25 16.0457 25C18.4741 25 20.8288 24.3028 22.8553 22.9838C24.7444 21.7543 26.2592 20.0471 27.254 18.0351H30.0626C31.1814 18.0351 32.0915 17.1252 32.0915 16.0069V8.99319C32.0915 7.87475 31.1813 6.96485 30.0626 6.96485ZM21.3253 6.96485H16.5158V0.976909C18.517 1.2861 20.3409 3.55024 21.3253 6.96485ZM10.7662 6.96485C11.7506 3.55024 13.5744 1.2861 15.5756 0.976909V6.96485H10.7662ZM9.74903 22.1958C8.13337 21.1442 6.81342 19.7153 5.89612 18.0351H9.79015C10.3248 19.9992 11.1354 21.6723 12.1456 22.8899C12.3618 23.1505 12.5852 23.3878 12.8148 23.6014C11.7349 23.2878 10.7026 22.8165 9.74903 22.1958ZM21.3253 18.0351C20.3409 21.4498 18.517 23.7139 16.5158 24.0231V18.0351H21.3253ZM15.5756 24.0231C13.5744 23.7139 11.7506 21.4498 10.7662 18.0351H15.5756V24.0231ZM31.1513 16.0069C31.1513 16.6068 30.6629 17.0949 30.0626 17.0949H25.5014C25.2418 17.0949 25.0313 17.3053 25.0313 17.565C25.0313 17.8247 25.2418 18.0351 25.5014 18.0351H26.1953C25.278 19.7153 23.958 21.1442 22.3424 22.1958C21.3889 22.8165 20.3566 23.2878 19.2766 23.6014C19.5063 23.3878 19.7297 23.1505 19.9458 22.8899C20.9561 21.6723 21.7667 19.9992 22.3013 18.0351H23.3076C23.5672 18.0351 23.7777 17.8247 23.7777 17.565C23.7777 17.3053 23.5672 17.0949 23.3076 17.0949H2.02891C1.42857 17.0949 0.94018 16.6068 0.94018 16.0069V8.99313C0.94018 8.39317 1.42857 7.90509 2.02891 7.90509H5.12893C5.12968 7.90509 5.13043 7.90522 5.13119 7.90522C5.13175 7.90522 5.13231 7.90509 5.13294 7.90509H6.63203C6.89164 7.90509 7.10212 7.69468 7.10212 7.435C7.10212 7.17532 6.89164 6.96491 6.63203 6.96491H5.89612C6.81342 5.28469 8.13343 3.8558 9.74903 2.80418C10.7026 2.18354 11.7349 1.71219 12.8148 1.39861C12.5852 1.61222 12.3617 1.84952 12.1456 2.11008C11.1354 3.32767 10.3248 5.00075 9.79015 6.96491H8.82578C8.56616 6.96491 8.35569 7.17532 8.35569 7.435C8.35569 7.69468 8.56616 7.90509 8.82578 7.90509H30.0626C30.6629 7.90509 31.1513 8.39317 31.1513 8.99313V16.0069Z" fill="#43425D"/>
<path d="M8.77462 9.49732C8.515 9.49983 8.3066 9.71237 8.3091 9.97192L8.34333 13.5116L5.71772 9.70961C5.60082 9.54038 5.38734 9.46686 5.19103 9.52797C4.9946 9.58921 4.86084 9.77104 4.86084 9.97675V14.9547C4.86084 15.2144 5.07131 15.4248 5.33093 15.4248C5.59054 15.4248 5.80102 15.2144 5.80102 14.9547V11.4847L8.30998 15.1179C8.45421 15.3262 8.69238 15.4156 8.91671 15.3456C9.14706 15.2737 9.29585 15.0543 9.29579 14.7822L9.24922 9.96296C9.24665 9.70328 9.03173 9.49412 8.77462 9.49732Z" fill="#43425D"/>
<path d="M13.3854 10.4603C13.645 10.4603 13.8555 10.2498 13.8555 9.99017C13.8555 9.73049 13.645 9.52008 13.3854 9.52008H11.3031C11.0435 9.52008 10.833 9.73049 10.833 9.99017V14.9319C10.833 15.1916 11.0435 15.402 11.3031 15.402H13.3854C13.645 15.402 13.8555 15.1916 13.8555 14.9319C13.8555 14.6723 13.645 14.4619 13.3854 14.4619H11.7732V12.9311H13.2318C13.4915 12.9311 13.7019 12.7207 13.7019 12.461C13.7019 12.2013 13.4915 11.9909 13.2318 11.9909H11.7732V10.4603H13.3854Z" fill="#43425D"/>
<path d="M25.8557 12.0594C25.2181 11.8241 24.6264 11.5675 24.4723 11.4998C24.3222 11.3886 24.2495 11.2117 24.2769 11.0205C24.312 10.7765 24.5005 10.5804 24.7812 10.4959C25.5669 10.2589 26.2795 10.8287 26.2951 10.8415C26.4938 11.0069 26.789 10.9807 26.9557 10.7827C27.1227 10.5839 27.097 10.2874 26.8983 10.1203C26.8539 10.0829 25.7939 9.20906 24.51 9.59573C23.8792 9.78577 23.4334 10.2806 23.3463 10.887C23.2651 11.4524 23.51 11.996 23.9853 12.306C24.0061 12.3196 24.0279 12.3314 24.0505 12.3415C24.0793 12.3543 24.7615 12.658 25.5303 12.9415C26.069 13.1403 26.343 13.45 26.282 13.7913C26.2212 14.1322 25.8222 14.4847 25.2599 14.4847C24.7216 14.4847 24.2021 14.2661 23.8702 13.8999C23.6958 13.7075 23.3986 13.6928 23.2062 13.8672C23.0138 14.0416 22.9992 14.3388 23.1735 14.5312C23.6807 15.0909 24.4606 15.425 25.2599 15.425C26.2208 15.425 27.0581 14.7937 27.2075 13.9566C27.3209 13.3222 27.0252 12.4907 25.8557 12.0594Z" fill="#43425D"/>
<path d="M21.3975 9.51551C21.1432 9.46486 20.8954 9.63015 20.8447 9.88481L20.1484 13.3834L19.0534 9.82903C18.977 9.58088 18.7139 9.44174 18.4658 9.51814C18.2945 9.57092 18.1751 9.71276 18.1429 9.87716L17.0575 13.3836L16.3637 9.87622C16.3134 9.62156 16.0661 9.45584 15.8113 9.50629C15.5567 9.55669 15.391 9.80396 15.4414 10.0586L16.4131 14.9711C16.4176 14.9936 16.4236 15.0157 16.4313 15.0373C16.5139 15.2695 16.7342 15.4249 16.9803 15.4249H16.9844C17.2323 15.4232 17.4523 15.2643 17.532 15.0297C17.5334 15.0256 17.5347 15.0215 17.5359 15.0174L18.6045 11.5653L19.6683 15.0183C19.6702 15.0247 19.6723 15.031 19.6745 15.0372C19.757 15.2695 19.9773 15.4249 20.2235 15.4249H20.2275C20.4754 15.4232 20.6955 15.2644 20.7752 15.0297C20.7818 15.0102 20.7871 14.9904 20.7912 14.9702L21.7668 10.0684C21.8174 9.81367 21.6522 9.56615 21.3975 9.51551Z" fill="#43425D"/>
</svg>
