<svg width="20" height="20" viewBox="0 0 20 20" fill="none" xmlns="http://www.w3.org/2000/svg">
<path d="M3 0H17C17.7956 0 18.5587 0.316071 19.1213 0.87868C19.6839 1.44129 20 2.20435 20 3V13C20 13.7956 19.6839 14.5587 19.1213 15.1213C18.5587 15.6839 17.7956 16 17 16H5.41L1.71 19.71C1.61656 19.8027 1.50574 19.876 1.38391 19.9258C1.26207 19.9755 1.13161 20.0008 1 20C0.868823 20.0034 0.73868 19.976 0.620001 19.92C0.437382 19.845 0.281054 19.7176 0.170721 19.5539C0.0603878 19.3901 0.000985482 19.1974 0 19V3C0 2.20435 0.31607 1.44129 0.878679 0.87868C1.44129 0.316071 2.20435 0 3 0ZM2 16.59L4.29 14.29C4.38344 14.1973 4.49426 14.124 4.61609 14.0742C4.73793 14.0245 4.86839 13.9992 5 14H17C17.2652 14 17.5196 13.8946 17.7071 13.7071C17.8946 13.5196 18 13.2652 18 13V3C18 2.73478 17.8946 2.48043 17.7071 2.29289C17.5196 2.10536 17.2652 2 17 2H3C2.73478 2 2.48043 2.10536 2.29289 2.29289C2.10536 2.48043 2 2.73478 2 3V16.59Z" fill="white"/>
</svg>
