<!-- icon666.com - MILLIONS vector ICONS FREE --><svg id="Capa_1" enable-background="new 0 0 512 512" viewBox="0 0 512 512" xmlns="http://www.w3.org/2000/svg"><g><path d="m70.838 319.75c20.076 11.294 43.236 17.75 67.912 17.75 23.862 0 46.316-6.026 65.926-16.635-.112-2.53-.176-5.067-.176-7.615 0-22.768 4.466-44.871 13.274-65.694 8.501-20.098 20.664-38.142 36.152-53.63 6.743-6.744 13.972-12.855 21.643-18.31-11.015-65.616-68.073-115.616-136.819-115.616-76.63 0-138.75 62.12-138.75 138.75 0 25.118 6.694 48.664 18.368 68.987l-6.537 57.933zm82.912-27.25h-30v-30h30zm-67.5-135c0-14.498 6.08-28.488 16.683-38.384 10.752-10.036 24.775-15.002 39.51-13.988 25.962 1.791 46.89 22.719 48.681 48.681 1.478 21.427-10.002 41.38-29.247 50.833-4.936 2.425-8.126 7.657-8.126 13.328v14.53h-30v-14.531c0-17.022 9.773-32.823 24.898-40.254 8.257-4.056 13.181-12.629 12.545-21.842-.766-11.102-9.714-20.051-20.815-20.816-6.348-.438-12.368 1.691-16.975 5.99-4.613 4.306-7.153 10.149-7.153 16.454v7.5h-30v-7.501z" fill="#000000" style="fill: rgb(255, 255, 255);"></path><path d="m493.632 382.237c11.674-20.323 18.368-43.869 18.368-68.987 0-76.63-62.121-138.75-138.75-138.75s-138.75 62.12-138.75 138.75 62.121 138.75 138.75 138.75c24.675 0 47.836-6.456 67.912-17.75l59.008 5.919zm-105.382 9.763h-30v-30h30zm0-60h-30v-97.5h30z" fill="#000000" style="fill: rgb(255, 255, 255);"></path></g></svg>