<svg width="16" height="19" viewBox="0 0 16 19" fill="none" xmlns="http://www.w3.org/2000/svg">
<path fill-rule="evenodd" clip-rule="evenodd" d="M8 18.6663C8 18.6663 15.5 13.6663 15.5 7.83301C15.5 5.84388 14.7098 3.93623 13.3033 2.52971C11.8968 1.12318 9.98912 0.333008 8 0.333008C6.01088 0.333008 4.10322 1.12318 2.6967 2.52971C1.29018 3.93623 0.5 5.84388 0.5 7.83301C0.5 13.6663 8 18.6663 8 18.6663ZM10.5 7.83301C10.5 9.21372 9.38071 10.333 8 10.333C6.61929 10.333 5.5 9.21372 5.5 7.83301C5.5 6.4523 6.61929 5.33301 8 5.33301C9.38071 5.33301 10.5 6.4523 10.5 7.83301Z" fill="#464F6A"/>
</svg>
